PathFileType	4	(X/Y/Z)	D:\TRACE\v60_Jaco2_6-2-23\v60_baseline_4-v60.trc
DataRate	CameraRate	NumFrames	NumMarkers	Units	OrigDataRate	OrigDataStartFrame	OrigNumFrames
100.00	100.00	      31	9	mm	100.00	1	      6500
Frame#	Time	front left toe			Front right toe			aft left toe			aft right toe			Arm			FL body			FR body			AL Body			AR Body			
		X1	Y1	Z1	X2	Y2	Z2	X3	Y3	Z3	X4	Y4	Z4	X5	Y5	Z5	X6	Y6	Z6	X7	Y7	Z7	X8	Y8	Z8	X9	Y9	Z9	

1	0.000	-222.20644	20.26912	-111.56905	186.38718	17.77400	-133.12096	-186.36008	17.18793	498.26593	217.03279	19.49796	504.77567	-119.71484	1206.09192	-262.17355	-97.40353	574.82672	-252.82433	62.13547	573.81097	-260.06992	-54.62461	578.52502	691.80530	102.06915	571.50623	685.58801	
2	0.010	-222.22293	20.26728	-111.62449	186.33414	17.73604	-133.14088	-186.32355	17.13155	498.29337	217.03879	19.48854	504.78769	-119.76672	1206.07703	-262.17053	-97.97141	575.12970	-253.15999	62.17206	573.80359	-260.07803	-54.30858	578.39709	692.27502	101.99734	571.46442	685.60431	
3	0.020	-222.24971	20.29806	-111.64636	186.42758	17.78658	-133.08401	-186.34387	17.15814	498.26755	217.04524	19.49755	504.77731	-119.77898	1206.10059	-262.22107	-97.42870	574.85638	-252.85139	62.16859	573.80072	-260.06421	-54.56035	578.51166	691.84088	102.03841	571.48425	685.59448	
4	0.030	-222.18124	20.24666	-111.59632	186.50681	17.83077	-133.09329	-186.32506	17.15927	498.27246	217.01910	19.50350	504.78915	-119.72498	1206.13904	-262.19006	-97.36777	574.85474	-252.82152	62.14801	573.79980	-260.08734	-54.29226	578.42621	692.28467	102.05617	571.49573	685.59497	
5	0.040	-222.18745	20.24116	-111.62032	186.47063	17.80293	-133.11940	-186.31297	17.17173	498.26154	217.03925	19.50609	504.78738	-119.74679	1206.10559	-262.17941	-97.40913	574.88391	-252.81915	62.60030	573.94373	-260.42035	-54.28854	578.40747	692.25836	102.08366	571.46564	685.57764	
6	0.050	-222.19075	20.23343	-111.64965	186.43828	17.78479	-133.13185	-186.34183	17.15436	498.27841	217.03986	19.50794	504.78696	-119.73859	1206.10071	-262.17572	-97.38033	574.82599	-252.77797	62.19579	573.81110	-260.07449	-54.59387	578.52643	691.80701	102.04014	571.47058	685.59784	
7	0.060	-222.20393	20.24776	-111.60398	186.45329	17.79677	-133.11963	-186.31801	17.13374	498.29361	217.07864	19.49831	504.77457	-119.74455	1206.09595	-262.21466	-97.36160	574.84052	-252.76193	62.14021	573.79010	-260.10529	-54.58333	578.52008	691.81927	102.02334	571.46387	685.58691	
8	0.070	-222.16670	20.26074	-111.58715	186.44522	17.78044	-133.14058	-186.35451	17.20436	498.29074	217.02609	19.49169	504.76807	-119.72858	1206.08594	-262.18677	-97.29755	574.81818	-252.74989	62.12169	573.82617	-260.06567	-54.32333	578.41498	692.26447	102.00597	571.51263	685.58063	
9	0.080	-222.22710	20.29649	-111.62199	186.45607	17.80136	-133.14085	-186.33328	17.19697	498.25659	217.06230	19.49162	504.77560	-119.75636	1206.14478	-262.21790	-97.27037	574.82410	-252.72900	62.11173	573.80261	-260.08450	-54.56743	578.54431	691.78796	102.03430	571.45746	685.58575	
10	0.090	-222.25456	20.30672	-111.60064	186.45357	17.81360	-133.16832	-186.37888	17.23262	498.24353	217.05035	19.53530	504.77850	-119.72441	1206.12683	-262.18741	-97.34061	574.83630	-252.75595	62.15382	573.82123	-260.06290	-54.27945	578.42743	692.23962	102.05081	571.46802	685.59326	
11	0.100	-222.24481	20.27210	-111.56296	186.50832	17.84310	-133.12781	-186.32364	17.19292	498.26160	217.04340	19.52897	504.76654	-119.76291	1206.15759	-262.22406	-98.00093	575.12665	-253.13504	62.13226	573.79083	-260.07492	-54.59928	578.53394	691.80963	102.10258	571.48712	685.58789	
12	0.110	-222.24173	20.30220	-111.59098	186.38048	17.77632	-133.18307	-186.44308	17.23946	498.25113	217.01126	19.49632	504.79382	-119.77091	1206.13037	-262.23056	-97.31693	574.82806	-252.74437	62.16462	573.80316	-260.08353	-54.33174	578.44684	692.23981	101.99468	571.51160	685.59125	
13	0.120	-222.22871	20.28429	-111.58209	186.43448	17.79048	-133.14455	-186.46992	17.24318	498.27008	217.00798	19.51194	504.77679	-119.78901	1206.15369	-262.24045	-98.00610	575.16876	-253.13632	62.12724	573.80701	-260.09332	-54.58830	578.54407	691.79669	102.06263	571.51666	685.57745	
14	0.130	-222.17194	20.26357	-111.65035	186.47160	17.83806	-133.10017	-186.41763	17.23899	498.23187	216.99515	19.53152	504.78931	-119.76910	1206.18323	-262.20630	-97.25347	574.84308	-252.66862	62.15556	573.84137	-260.07333	-54.55133	578.55817	691.76941	102.09704	571.53149	685.61090	
15	0.140	-222.24622	20.31767	-111.59274	186.40897	17.81847	-133.15514	-186.45883	17.31658	498.24042	217.04866	19.51596	504.77744	-119.79240	1206.20593	-262.21777	-97.36916	574.81464	-252.72710	62.17126	573.79944	-260.06924	-54.60429	578.54840	691.78857	102.02388	571.51971	685.59906	
16	0.150	-222.15939	20.24585	-111.56393	186.45250	17.81233	-133.13405	-186.39920	17.23479	498.23721	217.06081	19.52228	504.76947	-119.76225	1206.18005	-262.21106	-97.28015	574.80896	-252.70547	62.18370	573.82410	-260.07285	-54.59668	578.54773	691.79590	102.02940	571.49438	685.58246	
17	0.160	-222.22774	20.28442	-111.54250	186.42780	17.79222	-133.16364	-186.39740	17.22485	498.25510	217.05098	19.53224	504.76834	-119.76292	1206.15796	-262.22394	-97.41427	574.86627	-252.80472	62.17176	573.80310	-260.06396	-54.28073	578.44684	692.22772	102.06461	571.47614	685.59119	
18	0.170	-222.19928	20.22846	-111.58150	186.41539	17.78662	-133.13765	-186.43767	17.21594	498.25443	217.05229	19.50429	504.77286	-119.80126	1206.13110	-262.21307	-98.01772	575.14032	-253.12292	62.14760	573.82501	-260.07822	-54.32467	578.40308	692.25098	102.04295	571.50146	685.58691	
19	0.180	-222.23341	20.28234	-111.57037	186.48726	17.83017	-133.11629	-186.30739	17.15860	498.27325	217.03194	19.50265	504.78555	-119.74292	1206.14514	-262.20407	-97.29725	574.83484	-252.75189	62.11367	573.83496	-260.09479	-54.29377	578.43573	692.24341	102.11826	571.47778	685.58282	
20	0.190	-222.25499	20.30122	-111.57307	186.47725	17.80851	-133.11819	-186.37556	17.24666	498.26709	217.01439	19.48971	504.79211	-119.76011	1206.11072	-262.17786	-97.31841	574.85675	-252.75128	62.17043	573.83502	-260.06390	-54.58789	578.53827	691.83344	102.06079	571.50812	685.58301	
21	0.200	-222.19466	20.23975	-111.59599	186.48701	17.79877	-133.12779	-186.33557	17.17186	498.28256	217.03278	19.49615	504.79501	-119.73062	1206.13599	-262.20007	-97.28365	574.80695	-252.69077	62.16298	573.82880	-260.06677	-54.30916	578.42487	692.27148	102.04733	571.48889	685.62158	
22	0.210	-222.20688	20.28217	-111.56441	186.44849	17.75574	-133.13364	-186.31178	17.13943	498.29868	217.04170	19.49438	504.77316	-119.77843	1206.09119	-262.18823	-97.29299	574.83398	-252.71689	62.62570	573.96368	-260.36526	-54.57428	578.51379	691.82690	102.01797	571.49695	685.59406	
23	0.220	-222.19366	20.27516	-111.54391	186.44046	17.77627	-133.13615	-186.33434	17.17665	498.29297	217.04840	19.47676	504.78360	-119.72101	1206.03613	-262.12555	-97.28830	574.86475	-252.72881	62.16370	573.79871	-260.04343	-54.61190	578.51642	691.80444	102.05676	571.51056	685.59332	
24	0.230	-222.22545	20.26382	-111.60728	186.47528	17.80166	-133.09207	-186.38797	17.15431	498.27042	217.02225	19.49652	504.79575	-119.77464	1206.07764	-262.19492	-97.34642	574.84338	-252.76869	62.17209	573.80090	-260.05594	-54.24266	578.43823	692.26483	102.11485	571.45496	685.57788	
25	0.240	-222.19524	20.28125	-111.57419	186.47705	17.79209	-133.08755	-186.38478	17.19358	498.26706	217.03325	19.49650	504.78882	-119.76516	1206.10254	-262.21710	-97.43485	574.86761	-252.84836	62.15908	573.79730	-260.07950	-54.56503	578.52344	691.78748	102.15144	571.44373	685.56525	
26	0.250	-222.21939	20.31866	-111.58450	186.50085	17.79160	-133.08760	-186.36337	17.19159	498.27051	217.02538	19.49010	504.77805	-119.74500	1206.08582	-262.19193	-97.33411	574.82745	-252.74985	62.58864	573.92352	-260.38242	-54.55521	578.54297	691.82837	102.08678	571.49475	685.58777	
27	0.260	-222.20767	20.30993	-111.58861	186.46266	17.80807	-133.13934	-186.33905	17.20255	498.25089	217.05428	19.48985	504.78784	-119.72932	1206.12634	-262.19070	-97.32343	574.82703	-252.73102	62.17890	573.78363	-260.06213	-54.58545	578.54510	691.82361	102.08400	571.48303	685.58881	
28	0.270	-222.22484	20.25142	-111.61141	186.50053	17.79944	-133.10640	-186.38174	17.20815	498.26770	217.03525	19.49207	504.77475	-119.74020	1206.11560	-262.20483	-97.33670	574.80139	-252.74712	62.20146	573.77710	-260.07141	-54.25066	578.42310	692.25854	102.10477	571.48572	685.60394	
29	0.280	-222.29355	20.29257	-111.56911	186.45012	17.80056	-133.13411	-186.38219	17.21147	498.26495	217.04529	19.49591	504.77225	-119.80339	1206.13733	-262.21695	-97.32912	574.82239	-252.74556	62.14727	573.78406	-260.06793	-54.25360	578.43262	692.28229	102.08406	571.47253	685.59375	
30	0.290	-222.15926	20.24641	-111.55347	186.43411	17.78729	-133.14737	-186.43182	17.26901	498.22638	217.02675	19.51440	504.79251	-119.79084	1206.18262	-262.18942	-97.33216	574.82617	-252.72467	62.14805	573.80841	-260.07916	-54.55273	578.53308	691.81403	102.07619	571.51080	685.58801	
31	0.300	-222.18158	20.26552	-111.60165	186.42558	17.80210	-133.16280	-186.36813	17.24211	498.24112	217.06245	19.51650	504.78140	-119.76030	1206.16736	-262.23065	-97.32413	574.81940	-252.73878	62.18235	573.83264	-260.07111	-54.55832	578.56244	691.79681	102.08504	571.48041	685.57648	
